# xmcd
#
# Track frame offsets:
#	150
#	15986
#	29443
#	44615
#	62185
#	78191
#	92154
#	105431
#	119135
#	135361
#	151236
#
# Disc length: 2199 seconds
#
# Revision: 0
# Processed by: cddbd v1.5.2PL0 Copyright (c) Steve Scherf et al.
# Submitted via: dBpowerAMP V4.0
#
DISCID=8508950b
DTITLE=Chris Young - Chris Young
DYEAR=1900
DGENRE=Country
TTITLE0=Beer or Gasoline
TTITLE1=You're Gonna Love Me
TTITLE2=Drinkin' Me Lonely
TTITLE3=White Lightning Hit The Family Tree
TTITLE4=Lay It On Me
TTITLE5=Burn
TTITLE6=Small Town Big Time
TTITLE7=Flowers
TTITLE8=Center of My World
TTITLE9=I'm Headed Your Way, Jose
TTITLE10=Who's Gonna Take Me Home
EXTD=
EXTT0=
EXTT1=
EXTT2=
EXTT3=
EXTT4=
EXTT5=
EXTT6=
EXTT7=
EXTT8=
EXTT9=
EXTT10=
PLAYORDER=
